<svg width="36" height="46" viewBox="0 0 36 46" fill="none" xmlns="http://www.w3.org/2000/svg">
<path d="M6.625 45.75H34.25C34.681 45.75 35.0943 45.5788 35.399 45.274C35.7038 44.9693 35.875 44.556 35.875 44.125C35.875 43.694 35.7038 43.2807 35.399 42.976C35.0943 42.6712 34.681 42.5 34.25 42.5H6.625C5.76305 42.5 4.9364 42.1576 4.3269 41.5481C3.71741 40.9386 3.375 40.112 3.375 39.25H33.0312C33.7855 39.25 34.5088 38.9504 35.0421 38.4171C35.5754 37.8838 35.875 37.1605 35.875 36.4062V6.75C35.875 5.02609 35.1902 3.37279 33.9712 2.15381C32.7522 0.93482 31.0989 0.25 29.375 0.25H6.625C4.90109 0.25 3.24779 0.93482 2.02881 2.15381C0.809819 3.37279 0.125 5.02609 0.125 6.75V39.25C0.125 40.9739 0.809819 42.6272 2.02881 43.8462C3.24779 45.0652 4.90109 45.75 6.625 45.75ZM22.875 14.0625C22.875 15.3554 22.3614 16.5954 21.4471 17.5096C20.5329 18.4239 19.2929 18.9375 18 18.9375C16.7071 18.9375 15.4671 18.4239 14.5529 17.5096C13.6386 16.5954 13.125 15.3554 13.125 14.0625C13.125 12.7696 13.6386 11.5296 14.5529 10.6154C15.4671 9.70111 16.7071 9.1875 18 9.1875C19.2929 9.1875 20.5329 9.70111 21.4471 10.6154C22.3614 11.5296 22.875 12.7696 22.875 14.0625ZM26.9375 25.0312C26.9375 28.0667 24.3846 31.125 18 31.125C11.6154 31.125 9.0625 28.0781 9.0625 25.0312V24.6981C9.0625 22.8619 10.551 21.375 12.3872 21.375H23.6144C25.4506 21.375 26.9375 22.8619 26.9375 24.6981V25.0312Z" fill="white"/>
</svg>
