<svg width="18" height="28" viewBox="0 0 18 28" fill="none" xmlns="http://www.w3.org/2000/svg">
<path d="M0.25 3.5C0.25 2.57174 0.618749 1.6815 1.27513 1.02513C1.9315 0.368749 2.82174 0 3.75 0L14.25 0C15.1783 0 16.0685 0.368749 16.7249 1.02513C17.3813 1.6815 17.75 2.57174 17.75 3.5V24.5C17.75 25.4283 17.3813 26.3185 16.7249 26.9749C16.0685 27.6313 15.1783 28 14.25 28H3.75C2.82174 28 1.9315 27.6313 1.27513 26.9749C0.618749 26.3185 0.25 25.4283 0.25 24.5V3.5ZM10.75 22.75C10.75 22.2859 10.5656 21.8408 10.2374 21.5126C9.90925 21.1844 9.46413 21 9 21C8.53587 21 8.09075 21.1844 7.76256 21.5126C7.43437 21.8408 7.25 22.2859 7.25 22.75C7.25 23.2141 7.43437 23.6592 7.76256 23.9874C8.09075 24.3156 8.53587 24.5 9 24.5C9.46413 24.5 9.90925 24.3156 10.2374 23.9874C10.5656 23.6592 10.75 23.2141 10.75 22.75Z" fill="white"/>
</svg>
