<svg width="24" height="26" viewBox="0 0 24 26" fill="none" xmlns="http://www.w3.org/2000/svg">
<path d="M11.4877 0.156155C11.6394 0.0543368 11.8176 0 12 0C12.1824 0 12.3606 0.0543368 12.5123 0.156155C15.204 1.96148 18.7523 3.73988 23.1692 4.18378C23.3969 4.2068 23.608 4.31409 23.7615 4.48483C23.915 4.65556 24 4.87758 24 5.1078V13.0015C24 16.6047 22.0394 19.66 19.6606 21.8665C17.2865 24.0693 14.3649 25.5542 12.1698 25.9684L12 26L11.8302 25.9684C9.63508 25.5542 6.71354 24.0693 4.33939 21.8665C1.96062 19.66 0 16.6047 0 13.0015V5.1078C-2.87477e-06 4.87758 0.084994 4.65556 0.238501 4.48483C0.392008 4.31409 0.60308 4.2068 0.830769 4.18378C5.24769 3.73988 8.79692 1.96148 11.4877 0.156155ZM18.1911 9.94429C18.3643 9.77016 18.4616 9.53394 18.4617 9.28759C18.4618 9.04124 18.3646 8.80495 18.1915 8.6307C18.0185 8.45644 17.7837 8.3585 17.5388 8.35841C17.2939 8.35832 17.0591 8.4561 16.8858 8.63023L10.1538 15.403L8.03723 13.2736C7.86314 13.1044 7.62997 13.0108 7.38794 13.0129C7.14591 13.015 6.91439 13.1127 6.74324 13.2849C6.5721 13.4571 6.47502 13.69 6.47292 13.9335C6.47081 14.177 6.56385 14.4115 6.732 14.5867L9.50123 17.3727C9.67433 17.5468 9.90908 17.6446 10.1538 17.6446C10.3986 17.6446 10.6334 17.5468 10.8065 17.3727L18.1911 9.94429Z" fill="white"/>
</svg>
