<svg width="24" height="20" viewBox="0 0 24 20" fill="none" xmlns="http://www.w3.org/2000/svg">
<path d="M21.3333 0.666687H2.66668C1.38334 0.666687 0.333344 1.71669 0.333344 3.00002V17C0.333344 18.2834 1.38334 19.3334 2.66668 19.3334H21.3333C22.6167 19.3334 23.6667 18.2834 23.6667 17V3.00002C23.6667 1.71669 22.6167 0.666687 21.3333 0.666687ZM20.8667 5.62502L13.2367 10.3967C12.4783 10.875 11.5217 10.875 10.7633 10.3967L3.13334 5.62502C3.01636 5.55935 2.91392 5.47062 2.83221 5.36422C2.75051 5.25781 2.69125 5.13593 2.65802 5.00595C2.62478 4.87598 2.61826 4.74061 2.63886 4.60804C2.65946 4.47548 2.70674 4.34847 2.77784 4.2347C2.84894 4.12094 2.94239 4.02279 3.05252 3.94618C3.16266 3.86958 3.28719 3.81612 3.41859 3.78904C3.54998 3.76195 3.68551 3.76181 3.81696 3.78863C3.94841 3.81544 4.07305 3.86864 4.18334 3.94502L12 8.83335L19.8167 3.94502C19.927 3.86864 20.0516 3.81544 20.1831 3.78863C20.3145 3.76181 20.45 3.76195 20.5814 3.78904C20.7128 3.81612 20.8374 3.86958 20.9475 3.94618C21.0576 4.02279 21.1511 4.12094 21.2222 4.2347C21.2933 4.34847 21.3406 4.47548 21.3612 4.60804C21.3818 4.74061 21.3752 4.87598 21.342 5.00595C21.3088 5.13593 21.2495 5.25781 21.1678 5.36422C21.0861 5.47062 20.9837 5.55935 20.8667 5.62502Z" fill="#2A2A2D"/>
</svg>
