<svg width="28" height="28" viewBox="0 0 28 28" fill="none" xmlns="http://www.w3.org/2000/svg">
<path fill-rule="evenodd" clip-rule="evenodd" d="M14 1C6.8201 1 1 6.8201 1 14C1 16.457 1.6825 18.758 2.8694 20.7184L1.7098 24.66C1.64322 24.8863 1.63884 25.1264 1.69712 25.3549C1.7554 25.5835 1.87418 25.7922 2.04099 25.959C2.20779 26.1258 2.41646 26.2446 2.64504 26.3029C2.87363 26.3612 3.11369 26.3568 3.34 26.2902L7.2816 25.1306C9.30796 26.3564 11.6317 27.003 14 27C21.1799 27 27 21.1799 27 14C27 6.8201 21.1799 1 14 1ZM11.0594 16.9419C13.6893 19.5705 16.1996 19.9176 17.0862 19.9501C18.4343 19.9995 19.7473 18.9699 20.2582 17.7752C20.3222 17.6265 20.3453 17.4634 20.3252 17.3027C20.305 17.1421 20.2424 16.9897 20.1438 16.8613C19.4314 15.9513 18.4681 15.2974 17.5269 14.6474C17.3305 14.5112 17.0889 14.4565 16.853 14.4948C16.6171 14.5331 16.4052 14.6614 16.262 14.8528L15.482 16.0423C15.4408 16.106 15.3769 16.1516 15.3033 16.17C15.2296 16.1883 15.1518 16.178 15.0855 16.1411C14.5564 15.8382 13.7855 15.3234 13.2317 14.7696C12.6779 14.2158 12.1943 13.48 11.9226 12.9847C11.8897 12.9216 11.8804 12.8488 11.8964 12.7795C11.9124 12.7101 11.9525 12.6488 12.0097 12.6064L13.2109 11.7146C13.3828 11.5659 13.4938 11.3589 13.5226 11.1334C13.5514 10.9079 13.4959 10.6797 13.3669 10.4926C12.7845 9.6398 12.1059 8.5556 11.1218 7.8367C10.9945 7.74525 10.8458 7.68823 10.69 7.67115C10.5342 7.65406 10.3767 7.67751 10.2326 7.7392C9.0366 8.2514 8.0018 9.5644 8.0512 10.9151C8.0837 11.8017 8.4308 14.312 11.0594 16.9419Z" fill="white"/>
</svg>
