<svg width="52" height="41" viewBox="0 0 52 41" fill="none" xmlns="http://www.w3.org/2000/svg">
<path d="M0.3068 22.6842C0.518159 24.3006 1.31031 25.785 2.53548 26.8604C3.76066 27.9358 5.3352 28.5288 6.9654 28.5288C8.5956 28.5288 10.1701 27.9358 11.3953 26.8604C12.6205 25.785 13.4126 24.3006 13.624 22.6842H0.3068ZM36.5893 36.2032C36.5897 36.3398 36.5632 36.4752 36.5112 36.6016C36.4593 36.728 36.3829 36.843 36.2865 36.9398C36.1901 37.0367 36.0756 37.1136 35.9494 37.1662C35.8233 37.2188 35.688 37.246 35.5514 37.2463H16.1491C15.5792 37.2463 15.1091 36.7783 15.1091 36.2032C15.111 35.9286 15.2215 35.6659 15.4163 35.4725C15.6111 35.279 15.8746 35.1704 16.1491 35.1704H35.5503C36.1244 35.1704 36.5893 35.6322 36.5893 36.2032ZM15.2225 37.7777H36.477V40.7802H15.2225V37.7777ZM38.376 22.6842C38.5866 24.3015 39.3782 25.7869 40.6033 26.8635C41.8283 27.9401 43.4032 28.5343 45.0341 28.5352C46.6651 28.5357 48.2403 27.9419 49.4652 26.865C50.6901 25.7881 51.4807 24.3018 51.689 22.6842H38.376ZM51.323 20.5948L45.8702 13.084H48.7854C49.4946 13.084 50.0656 12.5026 50.0656 11.784C50.0656 11.0716 49.4936 10.4964 48.7854 10.4964H33.3434C32.8853 9.23363 32.1025 8.11383 31.0739 7.24987C30.0452 6.3859 28.807 5.80827 27.4841 5.57516V1.52228C27.4841 0.801564 26.9058 0.226444 26.1893 0.226444L26.0686 0.239964L25.948 0.226444C25.7779 0.226031 25.6093 0.259289 25.4521 0.324303C25.2949 0.389317 25.152 0.484802 25.0319 0.605256C24.9117 0.725709 24.8166 0.86875 24.7519 1.02614C24.6873 1.18352 24.6545 1.35214 24.6553 1.52228V5.57309C23.3327 5.80653 22.095 6.38431 21.0667 7.24825C20.0384 8.1122 19.2559 9.23181 18.798 10.4944H3.35296C2.64888 10.4944 2.0748 11.0695 2.0748 11.7819C2.0748 12.5016 2.64888 13.0819 3.35296 13.0819H6.13496L0.6812 20.5928H0V21.9801H13.9339V20.5928H13.2496L7.79792 13.084H20.4537C20.4537 12.7907 20.4859 12.5026 20.5296 12.227C20.5743 12.097 20.6045 11.9649 20.6045 11.8287C20.8393 10.8408 21.3415 9.93667 22.056 9.2152C22.7705 8.49374 23.6698 7.98281 24.6553 7.73837V21.9832H24.6012C24.4899 27.3413 21.9409 32.014 18.1594 34.64H33.982C30.1995 32.014 27.6526 27.3413 27.535 21.9832H27.4851V7.73837C28.4704 7.98298 29.3695 8.49398 30.0838 9.21543C30.7981 9.93688 31.3001 10.841 31.5349 11.8287C31.5404 11.9646 31.5664 12.0974 31.6129 12.227C31.6545 12.5036 31.6805 12.7907 31.6805 13.084H44.2042L38.7504 20.5948H38.0702V21.9822H52V20.5948H51.323ZM6.4116 20.5948H2.0592L6.4116 14.5992V20.5948ZM7.52544 20.5948V14.5992L11.8778 20.5948H7.52544ZM44.4787 20.5948H40.1242L44.4787 14.5992V20.5948ZM45.5874 20.5948V14.5992L49.945 20.5948H45.5874ZM8.25864 8.68892C8.2491 9.02529 8.10877 9.34468 7.86748 9.57922C7.62618 9.81377 7.30294 9.94498 6.96644 9.94498C6.62994 9.94498 6.3067 9.81377 6.0654 9.57922C5.82411 9.34468 5.68378 9.02529 5.67424 8.68892C5.67424 7.97548 6.25456 7.39309 6.96904 7.39309C7.6804 7.39205 8.25864 7.97548 8.25864 8.68892ZM46.3268 8.62028C46.3268 9.33892 45.7486 9.90884 45.0351 9.90884C44.8654 9.90995 44.6972 9.87739 44.5402 9.81306C44.3832 9.74874 44.2405 9.65391 44.1204 9.53408C44.0003 9.41425 43.9051 9.27179 43.8404 9.11493C43.7757 8.95808 43.7427 8.78996 43.7434 8.62028C43.7365 8.4463 43.7647 8.27269 43.8265 8.10989C43.8882 7.94709 43.9822 7.79844 44.1029 7.67287C44.2235 7.5473 44.3683 7.44739 44.5285 7.37915C44.6887 7.3109 44.861 7.27572 45.0351 7.27572C45.2092 7.27572 45.3816 7.3109 45.5418 7.37915C45.702 7.44739 45.8467 7.5473 45.9674 7.67287C46.088 7.79844 46.182 7.94709 46.2438 8.10989C46.3055 8.27269 46.3338 8.4463 46.3268 8.62028Z" fill="white"/>
</svg>
